<svg xmlns="http://www.w3.org/2000/svg" viewBox="0 0 51.6 56"><title>icone2-Pedro</title><path d="M47.6,23.9h0C47.6,13.1,38.4,4.1,27.1,4h-.3A21.4,21.4,0,0,0,13.7,8.5,19.9,19.9,0,0,0,6.5,19.9a19.4,19.4,0,0,0-.3,6.8L0,37.4l6.9,1.9V49.6h8.7v6.2h3.2a63.8,63.8,0,0,0,9.5-.6,26.7,26.7,0,0,0,9.4-4.2L38,51V45.2a22.6,22.6,0,0,0,9.6-18.3ZM39.3,39.6H26.9v3.6h8.2l-.4.3v5.7a18.2,18.2,0,0,1-6.5,2.9,42.5,42.5,0,0,1-9.3.7V49.7h4.2V46.4H10.3V43.6h2.9V40H10.3V36.8L5,35.4l4.7-8.1v-.6a15.6,15.6,0,0,1,.2-6.1A17.3,17.3,0,0,1,27,7.2c9.5.1,17.2,7.6,17.2,16.7v4h-13v3.6H43.7a15.5,15.5,0,0,1-.8,2.3H29v3.6H41.1Z" fill="#25313a"/><path d="M50,0H19.7a1.6,1.6,0,0,0-1.6,1.5V28.3a1.1,1.1,0,0,0,1.8.9l7.6-5.4H50a1.6,1.6,0,0,0,1.6-1.5V1.5A1.6,1.6,0,0,0,50,0Z" fill="#e1362d"/><path d="M24.8,15.3l.8,1.3,2.7-1.4-.7-1.3Zm2-5.9H23.5v1.5h3.3Zm16.5-.1v1.5h3.3V9.3Zm1.4-5.9-3,1.5.8,1.3,3-1.5Zm-9.6.5a6.7,6.7,0,0,0-6.8,6.5,6.7,6.7,0,0,0,3.5,5.8v4.3h6.4V16.2a6.5,6.5,0,0,0,3.6-5.8A6.6,6.6,0,0,0,35.1,3.9Zm3.3,8.3-2.5,1.6v2.3H34.2V13.8l-2.5-1.6V9.3h1.7v2l1.7,1.1,1.7-1.1v-2h1.6Z" fill="#ffd4d4"/></svg>