<svg xmlns="http://www.w3.org/2000/svg" viewBox="0 0 53.4 57"><title>icone3-Pedro</title><path d="M41.3,49.3H30v3.3H41.3ZM48.6,0H22.8a4.9,4.9,0,0,0-4.9,4.9V52.1A4.9,4.9,0,0,0,22.8,57H48.6a4.9,4.9,0,0,0,4.8-4.8V5.1A4.9,4.9,0,0,0,48.6,0Zm1.6,52.1a1.6,1.6,0,0,1-1.6,1.6H22.8a1.6,1.6,0,0,1-1.6-1.6V48.5h29Zm0-6.9h-29v-33h29Zm0-36.3h-29v-4a1.6,1.6,0,0,1,1.6-1.6H48.6a1.6,1.6,0,0,1,1.6,1.6ZM30,7.7H41.3V4.4H30ZM14.1,7.3H.7v3.6H14.1Zm0,5.9H.7v3.6H14.1ZM.7,49.5H14.1V45.9H.7Zm0-5.7H14.1V40.2H.7ZM0,35.3H14.8V22.1H0Zm3.1-10h8.6v6.8H3.1Z" fill="#25313a"/><path d="M43,17H15.5A1.5,1.5,0,0,0,14,18.4v6l-6,4,6,4v5.3A1.4,1.4,0,0,0,15.4,39H43a1.4,1.4,0,0,0,1.4-1.4V18.4A1.4,1.4,0,0,0,43,17Z" fill="#e1362d"/><path d="M35.4,26.1H30.9l3.7-4.9a.2.2,0,0,0,0-.3H28.3l-4.7,7.9a.4.4,0,0,0,.1.3c0,.1.2.1.3.1h3.6l-2.7,6a.5.5,0,0,0,.2.4h.5l9.8-9Z" fill="#ffd4d4"/></svg>