<svg xmlns="http://www.w3.org/2000/svg" viewBox="0 0 52.4 56.9"><title>icone1-Pedro</title><path d="M26.2,4.6A26.2,26.2,0,1,0,52.4,30.7,26.1,26.1,0,0,0,26.2,4.6ZM40,32.4h9a22.7,22.7,0,0,1-2.2,8.2H39a41.8,41.8,0,0,0,1-8.2Zm-.9-11.5h7.7A22.1,22.1,0,0,1,49,29.1H40a57.1,57.1,0,0,0-.9-8.2Zm5.8-3.2H38.2a27.6,27.6,0,0,0-3.9-8.3,22.9,22.9,0,0,1,10.6,8.3Zm-10.1,0h-7V8.1c3.5,1.3,5.8,6,7,9.6ZM24.5,8.1v9.6H17.6c1.6-5.1,4.2-8.6,6.9-9.6Zm0,12.8v8.2H15.6a41.6,41.6,0,0,1,1.1-8.2Zm0,11.5v8.2H16.6a54.1,54.1,0,0,1-1-8.2Zm0,11.4v9.5c-3.4-1.2-5.8-5.9-6.9-9.5Zm3.3,9.5V43.8h7c-1.7,5-4.2,8.5-7,9.5Zm0-12.7V32.4h8.9a41.8,41.8,0,0,1-1,8.2Zm0-11.5V20.9h7.9a42.8,42.8,0,0,1,1,8.2ZM18,9.4a30.4,30.4,0,0,0-3.9,8.3H7.5A22.2,22.2,0,0,1,18,9.4ZM5.5,40.6a24.8,24.8,0,0,1-2.1-8.2h9a44.8,44.8,0,0,0,.9,8.2ZM3.4,29.1a21.8,21.8,0,0,1,2.2-8.2h7.7a43.8,43.8,0,0,0-.9,8.2ZM7.5,43.8h6.6A30.4,30.4,0,0,0,18,52.1,23.3,23.3,0,0,1,7.5,43.8Zm26.8,8.3a26,26,0,0,0,3.9-8.3h6.7a22.9,22.9,0,0,1-10.6,8.3Z" fill="#25313a"/><path d="M49.6,0h-28a1.4,1.4,0,0,0-1.4,1.4V26.5a1.4,1.4,0,0,0,2.3,1.1L29,22.4H49.6A1.4,1.4,0,0,0,51,21V1.4A1.4,1.4,0,0,0,49.6,0Z" fill="#e1362d"/><path d="M30,5.5a4.2,4.2,0,0,0-4.2,4.2v5.6a1.4,1.4,0,0,0,2.8,0V13.9h2.8v1.4a1.4,1.4,0,0,0,2.8,0V9.7A4.2,4.2,0,0,0,30,5.5Zm1.4,5.6H28.6V9.7a1.4,1.4,0,0,1,2.8,0Zm8.4-5.6H38.4A1.4,1.4,0,0,0,37,6.9v8.4a1.4,1.4,0,0,0,1.4,1.4h1.4a5.6,5.6,0,1,0,0-11.2Zm0,8.4V8.3a2.8,2.8,0,0,1,2.8,2.8A2.7,2.7,0,0,1,39.8,13.9Z" fill="#ffd4d4"/></svg>