<svg xmlns="http://www.w3.org/2000/svg" viewBox="0 0 1145 467"><title>ilustraCaptura</title><path d="M0,434.4V467H1140.4V434.4Z" fill="#fff"/><path d="M1131.6,0H606.2a13.4,13.4,0,0,0-13.4,13.4V334a13.4,13.4,0,0,0,13.4,13.4H846.5V416H771c-12.6,0-21.6,7.5-22.5,18.4H668.4V417H658.2V405.6h6.4V386.5H563.2V401H549.4v20.6h10.3v12.8H513.3l2.1-4.4a3.3,3.3,0,0,0,.3-3.3,3.2,3.2,0,0,0-2.9-1.7h-8l1.1-8.3h5.6a4.9,4.9,0,0,0,4.8-4.2l2.5-16.8a5,5,0,0,0-1.1-3.9h0a4.8,4.8,0,0,0-3.7-1.7h-4.7l1.9-14.4H457.1l6.4,49.3h-8a3.2,3.2,0,0,0-2.9,1.7,3.1,3.1,0,0,0,.2,3.1l2.2,4.6H422.5V415.8H320.3v18.6H134l2.4-44.5h3.7l1.2-1.3v-2.9l-1.2-1.2h-9.7c4.3-11.5,11.6-22,21.7-31.3l5.5-5.1-1.4-1.9-6.7,3.6a115.3,115.3,0,0,0-24.6,17.7c3.9-18.3,10-33.8,17.9-44.6l2.1-2.9-1.5-1.8-3.4,1.6c-12.2,5.8-22.7,20.8-29.8,41.9a108.9,108.9,0,0,0-47.1-65L57,292.9l-1.5,1.8,4.8,5.2c13.3,14.4,23.1,37.4,26.6,60.8A155.3,155.3,0,0,0,55.6,339l-6.7-3.5-1.4,1.9,5.5,5c14,12.6,24,26.9,29.9,42.4H72.2L71,386.1V389l1.2,1.2h3.6l3,44.2H0V467H1140.4V434.4h-54.8a23.5,23.5,0,0,0-23.4-22.4h-17.6a23.5,23.5,0,0,0-23.4,22.4H989.3c-.8-10.9-9.9-18.4-22.5-18.4h-73V347.4h237.8A13.4,13.4,0,0,0,1145,334V13.4A13.4,13.4,0,0,0,1131.6,0ZM663.8,421.6v12.3H573.7V421.6Zm-87.9-30.4H660V401H575.9Zm-8,0h3.4V401h-3.4ZM553.3,417V405.6H653.5V417Zm15.8,4.6v12.3h-4.8V421.6Zm-60.4-26.9H514c.1,0,.2,0,.2.1s.1.1.1.2l-2.5,16.8a.3.3,0,0,1-.3.3h-5Zm-46.4-14.4H506L500.2,425H468.1Zm48.3,49.2-2.1,4.9H459.8l-2.1-4.9Zm-98.1-8.9h5.2v13.1h-5.2Zm-87.4,0h82.6v13.1H325.1ZM137.9,362.3a80.2,80.2,0,0,0-12.3,22.3h-10A98.6,98.6,0,0,1,137.9,362.3Zm-4.4-32.7c-6.3,11.7-11.1,26.7-14.1,43.6a96.7,96.7,0,0,0-9,11.5h-1.6C113.6,359.6,122.5,340,133.5,329.6ZM73.6,309.9a105.6,105.6,0,0,1,34,60.5c-.9,3.3-1.7,6.7-2.5,10.2a123.1,123.1,0,0,0-13-15.2C89.9,345.2,83.2,325,73.6,309.9Zm-5.9,41.3a132.5,132.5,0,0,1,35.1,33.5H87.6A106.2,106.2,0,0,0,67.7,351.2ZM106.5,390H132l-.4,7.2-50.8.3-.4-7.2Zm24.9,11.3-1.9,33.1H83.3l-2.2-32.8Zm913.2,16.3h17.6a17.9,17.9,0,0,1,17.7,15.2h-53A17.9,17.9,0,0,1,1044.6,417.6Zm90.9,21.7v22.8H4.9V439.3H80l.4.3,52.2-.3H1135.5ZM966.8,421.5c9.1,0,15.6,4.6,16.9,11.9H754.1c1.3-7.3,7.8-11.9,16.9-11.9ZM852,415.9V347.5h36.3v68.4ZM1139.5,334a7.9,7.9,0,0,1-7.9,7.9H606.2a7.9,7.9,0,0,1-7.9-7.9V13.4a7.9,7.9,0,0,1,7.9-7.9h525.4a7.9,7.9,0,0,1,7.9,7.9ZM1115.6,15.7H622.2a13.5,13.5,0,0,0-13.4,13.5v289a13.4,13.4,0,0,0,13.4,13.4h493.4a13.5,13.5,0,0,0,13.5-13.4V29.2A13.6,13.6,0,0,0,1115.6,15.7Zm8,302.5a7.9,7.9,0,0,1-8,7.9H622.2a7.9,7.9,0,0,1-7.9-7.9V29.2a7.9,7.9,0,0,1,7.9-8h493.4a8,8,0,0,1,8,8Zm-634,16a8.8,8.8,0,0,1,2.5,4.4c.7,3.8-4.4,8.2-6.3,9.4l-.8.5,2.9,4.5.8-.5c.4-.3,10.2-6.8,8.6-15a14.1,14.1,0,0,0-3.6-6.7c-1.8-2.2-3.6-4.3-3.8-10.8v-.9l-5.4.2v.9C484.9,328.5,487.5,331.7,489.6,334.2Zm-8,32.4.8.5,2.9-4.5-.8-.5c-.1,0-7.2-4.9-6.3-9.5a8.9,8.9,0,0,1,2.5-4.3h0c2.1-2.5,4.7-5.7,5-14v-.9l-5.3-.2v.9c-.2,6.5-2,8.6-3.8,10.8a14.1,14.1,0,0,0-3.6,6.7C471.4,359.8,481.2,366.3,481.6,366.6Z" fill="#f0f0f0"/></svg>