<svg xmlns="http://www.w3.org/2000/svg" viewBox="0 0 49.8 89"><title>ilustraCopo</title><path d="M8.3,78.3H2.5A2.5,2.5,0,0,0,.4,82.1L3.7,89H44l3.2-6.8a2.7,2.7,0,0,0,.2-2.6,2.6,2.6,0,0,0-2.3-1.3H39.3m-31,0H2.5A2.5,2.5,0,0,0,.4,82.1L3.7,89H44l3.2-6.8a2.7,2.7,0,0,0,.2-2.6,2.6,2.6,0,0,0-2.3-1.3H39.3m-31,0H2.5A2.5,2.5,0,0,0,.4,82.1L3.7,89H44l3.2-6.8a2.7,2.7,0,0,0,.2-2.6,2.6,2.6,0,0,0-2.3-1.3H39.3m-31,0H2.5A2.5,2.5,0,0,0,.4,82.1L3.7,89H44l3.2-6.8a2.7,2.7,0,0,0,.2-2.6,2.6,2.6,0,0,0-2.3-1.3H8.3Z" fill="#fff"/><path d="M48.9,53.7A3.8,3.8,0,0,0,46,52.3H42.7l1.4-9.7H3.6L8.3,78.3H2.5A2.5,2.5,0,0,0,.4,82.1L3.7,89H44l3.2-6.8a2.7,2.7,0,0,0,.2-2.6,2.6,2.6,0,0,0-2.3-1.3H39.3l.8-5.9h4.1a3.8,3.8,0,0,0,3.7-3.2l1.8-12.5A3.6,3.6,0,0,0,48.9,53.7ZM43.3,81.9l-1.5,3.4H5.8L4.3,81.9Zm-7.7-3.6H12l-4.3-32H39.9Zm9.7-9.5H40.6L42.2,56h3.9L44.2,68.6ZM27.7,10.5a6.4,6.4,0,0,1,1.8,3.2c.6,3-3.2,6.2-4.6,7.1l-.4.2,1.9,2.8.3-.2c.3-.2,7.3-4.8,6.1-10.5a10.3,10.3,0,0,0-2.5-4.8C29,6.8,27.6,5.2,27.5.4V0H24.1V.5C24.3,6.5,26.2,8.7,27.7,10.5ZM21.9,33.8l.3.2L24,31.2l-.3-.2c-.1-.1-5.3-3.7-4.6-7.1a6.7,6.7,0,0,1,1.8-3.3c1.5-1.8,3.3-4,3.6-9.9v-.4H21.1v.4c-.2,4.7-1.5,6.3-2.8,7.9a9.1,9.1,0,0,0-2.5,4.7C14.6,29,21.6,33.6,21.9,33.8Zm27,19.9A3.8,3.8,0,0,0,46,52.3H42.7l1.4-9.7H3.6L8.3,78.3H2.5A2.5,2.5,0,0,0,.4,82.1L3.7,89H44l3.2-6.8a2.7,2.7,0,0,0,.2-2.6,2.6,2.6,0,0,0-2.3-1.3H39.3l.8-5.9h4.1a3.8,3.8,0,0,0,3.7-3.2l1.8-12.5A3.6,3.6,0,0,0,48.9,53.7ZM43.3,81.9l-1.5,3.4H5.8L4.3,81.9Zm-7.7-3.6H12l-4.3-32H39.9Zm9.7-9.5H40.6L42.2,56h3.9L44.2,68.6ZM27.7,10.5a6.4,6.4,0,0,1,1.8,3.2c.6,3-3.2,6.2-4.6,7.1l-.4.2,1.9,2.8.3-.2c.3-.2,7.3-4.8,6.1-10.5a10.3,10.3,0,0,0-2.5-4.8C29,6.8,27.6,5.2,27.5.4V0H24.1V.5C24.3,6.5,26.2,8.7,27.7,10.5ZM21.9,33.8l.3.2L24,31.2l-.3-.2c-.1-.1-5.3-3.7-4.6-7.1a6.7,6.7,0,0,1,1.8-3.3c1.5-1.8,3.3-4,3.6-9.9v-.4H21.1v.4c-.2,4.7-1.5,6.3-2.8,7.9a9.1,9.1,0,0,0-2.5,4.7C14.6,29,21.6,33.6,21.9,33.8Z" fill="#f0f0f0"/></svg>