<svg xmlns="http://www.w3.org/2000/svg" viewBox="0 0 318.7 218.1"><title>ilustraMobile</title><path d="M69.8,170.6l-.4.2,1.3,2.1.4-.3c.2-.1,4.7-3.1,4-6.9a6.5,6.5,0,0,0-1.7-3.1c-.8-1-1.6-2-1.7-5v-.4H69.2v.4c.1,3.9,1.3,5.3,2.3,6.5a3.1,3.1,0,0,1,1.1,2C73,168,70.6,170,69.8,170.6Zm208-10.7a6.5,6.5,0,0,0,6.4-6.5V14.1a6.5,6.5,0,0,0-6.4-6.5H41.9a6.5,6.5,0,0,0-6.5,6.5V153.4a6.5,6.5,0,0,0,6.5,6.5H66.2a14.9,14.9,0,0,1-.2-2.1v-.6H41.9a3.8,3.8,0,0,1-3.8-3.8V14.1a3.9,3.9,0,0,1,3.8-3.9H277.8a3.9,3.9,0,0,1,3.8,3.9V153.4a3.8,3.8,0,0,1-3.8,3.8H74.8v.3a9.7,9.7,0,0,0,.4,2.4ZM55,198.5a1.4,1.4,0,0,0,0,1.5l1.1,2.2h2.3l-1.1-2.3H82.4l-1.1,2.3h2.3l1-2.1a1.4,1.4,0,0,0,.1-1.6,1.3,1.3,0,0,0-1.3-.8H79.6l.5-3.9h2.7a2.3,2.3,0,0,0,2.3-2l1.1-7.9a2.5,2.5,0,0,0-.5-1.9h0a2.3,2.3,0,0,0-1.7-.8H81.7l.9-6.8h-16a2,2,0,0,1-.3-1.7,3.1,3.1,0,0,1,1.1-2h0c1-1.2,2.2-2.6,2.3-6.5v-.4H67.3v.4c-.2,3-1,4-1.8,5a7,7,0,0,0-1.7,3.1,5.3,5.3,0,0,0,.2,2.2H57.1l3,23.3H56.3A1.3,1.3,0,0,0,55,198.5Zm26.5-15.1h2.6l-1.2,7.9H80.4Zm-22-6.8H80.2l-2.8,21.1H62.3Zm204.8,25.8A11.3,11.3,0,0,0,253,191.6h-8.5a11.4,11.4,0,0,0-11.3,10.8H217.9c-.4-5.3-4.8-8.9-10.9-8.9H171.8V167.4H285.5a6.4,6.4,0,0,0,6.4-6.4V6.5A6.5,6.5,0,0,0,285.5,0H34.2a6.5,6.5,0,0,0-6.5,6.5V161a6.5,6.5,0,0,0,6.5,6.4H63a3.9,3.9,0,0,0,1-2.6H34.2a3.8,3.8,0,0,1-3.8-3.8V6.5a3.8,3.8,0,0,1,3.8-3.8H285.5a3.8,3.8,0,0,1,3.8,3.8V161a3.8,3.8,0,0,1-3.8,3.8H78.1a4.3,4.3,0,0,1,.1.5,5,5,0,0,1,.1,2.1H149v26.1H112.6c-6,0-10.4,3.6-10.8,8.9H0v15.7H318.7V202.4Zm-19.8-8.1H253a8.7,8.7,0,0,1,8.6,7.3H236A8.5,8.5,0,0,1,244.5,194.3Zm-92.8-26.8h17.5v26H151.7Zm-39.1,28.7H207c4.4,0,7.6,2.2,8.2,5.7H104.5C105.1,198.4,108.2,196.2,112.6,196.2Zm203.8,19.6H2.3v-11H316.4Z" fill="#f0f0f0"/></svg>