<svg xmlns="http://www.w3.org/2000/svg" viewBox="0 0 176 201.5"><title>ilustraLamp</title><path d="M136,164.3l-3.6-.2A35.5,35.5,0,0,0,97,199.5v2h70.7v-2a35.1,35.1,0,0,0-17.8-30.7Zm10.1,2.6a37,37,0,0,0-5.9-1.9" fill="#fff"/><path d="M167.1,113.6A10.4,10.4,0,0,0,165.7,93a10,10,0,0,0-4.2,1L80.2,9.3A5.9,5.9,0,0,0,80.7,7a7,7,0,0,0-14,0,7,7,0,0,0,.5,2.5l-1-1A2,2,0,0,0,64,8L60,9.5,53.7,3.1a2.2,2.2,0,0,0-3,0L47.4,6.5l-30.1,11h-.1a1.8,1.8,0,0,0-.7.5.1.1,0,0,1-.1.1,3,3,0,0,0-.4.8L13,29.2a2.3,2.3,0,0,0,.5,2.1l7,7a15.6,15.6,0,0,0,12.4,25,15.3,15.3,0,0,0,9.5-3.2l7,7.1a2.5,2.5,0,0,0,1.5.6h.6l10.3-3,.7-.4h.1a2.2,2.2,0,0,0,.5-.8h.1l11-30.1L77.5,30a2.2,2.2,0,0,0,.6-1.5,2,2,0,0,0-.6-1.5l-6.3-6.3,1.5-4a2.7,2.7,0,0,0-.5-2.3l-1-1a5.3,5.3,0,0,0,2.5.5H75l80.8,86.9a8,8,0,0,0-.4,2.7,10.2,10.2,0,0,0,3.4,7.6L136,164.3l-3.6-.2A35.5,35.5,0,0,0,97,199.5v2h70.7v-2a35.1,35.1,0,0,0-17.8-30.7,413.2,413.2,0,0,1,17-54.7A1.7,1.7,0,0,0,167.1,113.6ZM64.2,12.4l.5.5h0l2.9,3h0l.7.7-.4.9-4.6-4.7ZM24.9,55.8a11.5,11.5,0,0,1-1.4-14.5L39.4,57.1A11.4,11.4,0,0,1,24.9,55.8Zm26.6,7.5L17.3,29.2,19,23.4,57.2,61.6Zm8.9-4.4L41.1,39.6,21.8,20.3l26.3-9.6L70,32.6ZM73.1,28.5l-.7.6L51.5,8.2l.7-.6L62.6,18l4.7,4.7h0Zm84.7,68.3L140,77.7l18.1,18.8Zm5.8,100.6H101.2a31.3,31.3,0,0,1,62.4,0Zm-17.5-30.5a37,37,0,0,0-5.9-1.9l22.2-51.9.5.2C159.9,122.5,149,156.1,146.1,166.9Zm13.4-63.5a7.8,7.8,0,0,1,.4-2.1l1.1-1.1-.3-.4a6.2,6.2,0,0,1,5-2.6,6.1,6.1,0,0,1,6.1,6.2,6.1,6.1,0,0,1-6.1,6.1A6.1,6.1,0,0,1,159.5,103.4ZM10.1,84.4,13.4,86,20,72.7l-3.2-1.6ZM26.7,72.3l2,14,3.5-.5-1.9-14ZM12.2,61.8,0,68.8l1.8,3.1,12.2-7Z" fill="#f0f0f0"/></svg>